<svg width="2002" height="178" viewBox="0 0 2002 178" fill="none" xmlns="http://www.w3.org/2000/svg">
<g filter="url(#filter0_d)">
<path d="M5 131.362C176.596 63.2074 600.591 -52.6562 923.811 29.1299C1327.83 131.362 1711.2 191.206 1997 161.284" stroke="#565555" stroke-width="2"/>
</g>
<g filter="url(#filter1_d)">
<path d="M1997 38.6376C1825.4 106.793 1401.41 222.656 1078.19 140.87C674.165 38.6376 290.801 -21.2062 4.99998 8.7157" stroke="#565555" stroke-width="2"/>
</g>
<g filter="url(#filter2_d)">
<circle cx="439" cy="63" r="25" fill="#565555"/>
</g>
<g filter="url(#filter3_d)">
<path d="M464 63C464 59.717 463.353 56.4661 462.097 53.4329C460.841 50.3998 458.999 47.6438 456.678 45.3223C454.356 43.0009 451.6 41.1594 448.567 39.903C445.534 38.6466 442.283 38 439 38C435.717 38 432.466 38.6466 429.433 39.903C426.4 41.1594 423.644 43.0009 421.322 45.3223C419.001 47.6438 417.159 50.3998 415.903 53.4329C414.647 56.4661 414 59.717 414 63L439 63H464Z" fill="#565555"/>
</g>
<circle cx="1554" cy="109" r="25" fill="#565555"/>
<g filter="url(#filter4_d)">
<path d="M1579 108C1579 104.717 1578.35 101.466 1577.1 98.4329C1575.84 95.3998 1574 92.6438 1571.68 90.3223C1569.36 88.0009 1566.6 86.1594 1563.57 84.903C1560.53 83.6466 1557.28 83 1554 83C1550.72 83 1547.47 83.6466 1544.43 84.903C1541.4 86.1594 1538.64 88.0009 1536.32 90.3223C1534 92.6438 1532.16 95.3998 1530.9 98.4329C1529.65 101.466 1529 104.717 1529 108L1554 108H1579Z" fill="#565555"/>
</g>
<defs>
<filter id="filter0_d" x="0.630859" y="0" width="2000.47" height="178" filterUnits="userSpaceOnUse" color-interpolation-filters="sRGB">
<feFlood flood-opacity="0" result="BackgroundImageFix"/>
<feColorMatrix in="SourceAlpha" type="matrix" values="0 0 0 0 0 0 0 0 0 0 0 0 0 0 0 0 0 0 127 0"/>
<feOffset dy="4"/>
<feGaussianBlur stdDeviation="2"/>
<feColorMatrix type="matrix" values="0 0 0 0 0 0 0 0 0 0 0 0 0 0 0 0 0 0 0.25 0"/>
<feBlend mode="normal" in2="BackgroundImageFix" result="effect1_dropShadow"/>
<feBlend mode="normal" in="SourceGraphic" in2="effect1_dropShadow" result="shape"/>
</filter>
<filter id="filter1_d" x="0.895996" y="0" width="2000.47" height="178" filterUnits="userSpaceOnUse" color-interpolation-filters="sRGB">
<feFlood flood-opacity="0" result="BackgroundImageFix"/>
<feColorMatrix in="SourceAlpha" type="matrix" values="0 0 0 0 0 0 0 0 0 0 0 0 0 0 0 0 0 0 127 0"/>
<feOffset dy="4"/>
<feGaussianBlur stdDeviation="2"/>
<feColorMatrix type="matrix" values="0 0 0 0 0 0 0 0 0 0 0 0 0 0 0 0 0 0 0.25 0"/>
<feBlend mode="normal" in2="BackgroundImageFix" result="effect1_dropShadow"/>
<feBlend mode="normal" in="SourceGraphic" in2="effect1_dropShadow" result="shape"/>
</filter>
<filter id="filter2_d" x="410" y="38" width="58" height="58" filterUnits="userSpaceOnUse" color-interpolation-filters="sRGB">
<feFlood flood-opacity="0" result="BackgroundImageFix"/>
<feColorMatrix in="SourceAlpha" type="matrix" values="0 0 0 0 0 0 0 0 0 0 0 0 0 0 0 0 0 0 127 0"/>
<feOffset dy="4"/>
<feGaussianBlur stdDeviation="2"/>
<feColorMatrix type="matrix" values="0 0 0 0 0 0 0 0 0 0 0 0 0 0 0 0 0 0 0.25 0"/>
<feBlend mode="normal" in2="BackgroundImageFix" result="effect1_dropShadow"/>
<feBlend mode="normal" in="SourceGraphic" in2="effect1_dropShadow" result="shape"/>
</filter>
<filter id="filter3_d" x="410" y="38" width="58" height="33" filterUnits="userSpaceOnUse" color-interpolation-filters="sRGB">
<feFlood flood-opacity="0" result="BackgroundImageFix"/>
<feColorMatrix in="SourceAlpha" type="matrix" values="0 0 0 0 0 0 0 0 0 0 0 0 0 0 0 0 0 0 127 0"/>
<feOffset dy="4"/>
<feGaussianBlur stdDeviation="2"/>
<feColorMatrix type="matrix" values="0 0 0 0 0 0 0 0 0 0 0 0 0 0 0 0 0 0 0.25 0"/>
<feBlend mode="normal" in2="BackgroundImageFix" result="effect1_dropShadow"/>
<feBlend mode="normal" in="SourceGraphic" in2="effect1_dropShadow" result="shape"/>
</filter>
<filter id="filter4_d" x="1525" y="83" width="58" height="33" filterUnits="userSpaceOnUse" color-interpolation-filters="sRGB">
<feFlood flood-opacity="0" result="BackgroundImageFix"/>
<feColorMatrix in="SourceAlpha" type="matrix" values="0 0 0 0 0 0 0 0 0 0 0 0 0 0 0 0 0 0 127 0"/>
<feOffset dy="4"/>
<feGaussianBlur stdDeviation="2"/>
<feColorMatrix type="matrix" values="0 0 0 0 0 0 0 0 0 0 0 0 0 0 0 0 0 0 0.25 0"/>
<feBlend mode="normal" in2="BackgroundImageFix" result="effect1_dropShadow"/>
<feBlend mode="normal" in="SourceGraphic" in2="effect1_dropShadow" result="shape"/>
</filter>
</defs>
</svg>
