<svg width="2828" height="171" viewBox="0 0 2828 171" fill="none" xmlns="http://www.w3.org/2000/svg">
<path opacity="0.25" d="M2828 171V105.037C2715.37 73.4018 2583.87 59.1945 2455.65 65.1368C2289.83 72.789 2134.36 112.604 1968.29 118.574C1794.27 124.787 1620.59 94.5202 1454.06 68.3287C1290.82 42.6787 1128.14 32.8748 960.577 49.6898C875.384 58.2398 795.964 75.1118 714.424 91.4993C496.102 135.375 205.03 191.363 0.00012207 96.2303V171L2828 171Z" fill="#FFA726"/>
<path opacity="0.5" d="M2828 171V148.471C2797.36 118.389 2762.86 89.9745 2715.61 68.3287C2593.72 12.4402 2439.15 12.825 2298.74 40.4985C2225.33 54.9623 2157.13 77.6483 2087.42 97.2135C1990.98 124.289 1887.74 162.764 1779.09 167.993C1693.64 172.054 1612.01 154.57 1546.73 123.02C1471.86 86.8395 1399.86 34.6703 1302.51 18.9953C1207.2 3.61951 1110.79 28.5285 1021.76 53.5943C932.722 78.66 844.629 109.169 746.215 114.941C605.451 123.277 479.252 82.3365 348.174 59.5935C277.003 47.253 209.131 50.8013 142.932 70.281C90.072 85.7993 29.812 108.656 0.00012207 140.448V171L2828 171Z" fill="#FFA726"/>
<path d="M2828 171V162.977C2474.66 86.925 2087.79 69.369 1706.63 110.338C1605.29 121.225 1508.13 139.009 1405.89 148.043C1266.85 160.341 1140.82 130.601 1015.72 97.5982C876.845 60.9615 739.993 35.283 586.339 42.75C382.416 52.725 179.908 107.887 0.00012207 163.604V171L2828 171Z" fill="#FFA726"/>
</svg>
