<svg width="1951" height="2473" viewBox="0 0 1951 2473" fill="none" xmlns="http://www.w3.org/2000/svg">
<line x1="0.019043" y1="12.272" x2="447.036" y2="12.272" stroke="#C4C4C4" stroke-width="2"/>
<line y1="77.9053" x2="258.036" y2="77.9053" stroke="#C4C4C4" stroke-width="2"/>
<circle cx="446.536" cy="12.5" r="12.5" fill="#C4C4C4"/>
<circle cx="255.786" cy="77.75" r="8.75" fill="#C4C4C4"/>
<line x1="0.019043" y1="607.272" x2="447.036" y2="607.272" stroke="#C4C4C4" stroke-width="2"/>
<line y1="672.905" x2="258.036" y2="672.905" stroke="#C4C4C4" stroke-width="2"/>
<circle cx="446.536" cy="607.5" r="12.5" fill="#C4C4C4"/>
<circle cx="255.786" cy="672.75" r="8.75" fill="#C4C4C4"/>
<line x1="0.019043" y1="1303.27" x2="447.036" y2="1303.27" stroke="#C4C4C4" stroke-width="2"/>
<line y1="1368.91" x2="258.036" y2="1368.91" stroke="#C4C4C4" stroke-width="2"/>
<circle cx="446.536" cy="1303.5" r="12.5" fill="#C4C4C4"/>
<circle cx="255.786" cy="1368.75" r="8.75" fill="#C4C4C4"/>
<line x1="0.019043" y1="2041.27" x2="447.036" y2="2041.27" stroke="#C4C4C4" stroke-width="2"/>
<line y1="2106.91" x2="258.036" y2="2106.91" stroke="#C4C4C4" stroke-width="2"/>
<circle cx="446.536" cy="2041.5" r="12.5" fill="#C4C4C4"/>
<circle cx="255.786" cy="2106.75" r="8.75" fill="#C4C4C4"/>
<line x1="1950.02" y1="322.728" x2="1503" y2="322.728" stroke="#C4C4C4" stroke-width="2"/>
<line x1="1950.04" y1="257.095" x2="1692" y2="257.095" stroke="#C4C4C4" stroke-width="2"/>
<ellipse cx="1503.5" cy="322.5" rx="12.5" ry="12.5" transform="rotate(-180 1503.5 322.5)" fill="#C4C4C4"/>
<ellipse cx="1694.25" cy="257.25" rx="8.74998" ry="8.75" transform="rotate(-180 1694.25 257.25)" fill="#C4C4C4"/>
<line x1="1950.02" y1="983.728" x2="1503" y2="983.728" stroke="#C4C4C4" stroke-width="2"/>
<line x1="1950.04" y1="918.095" x2="1692" y2="918.095" stroke="#C4C4C4" stroke-width="2"/>
<ellipse cx="1503.5" cy="983.5" rx="12.5" ry="12.5" transform="rotate(-180 1503.5 983.5)" fill="#C4C4C4"/>
<ellipse cx="1694.25" cy="918.25" rx="8.74998" ry="8.75" transform="rotate(-180 1694.25 918.25)" fill="#C4C4C4"/>
<line x1="1950.02" y1="1678.73" x2="1503" y2="1678.73" stroke="#C4C4C4" stroke-width="2"/>
<line x1="1950.04" y1="1613.09" x2="1692" y2="1613.09" stroke="#C4C4C4" stroke-width="2"/>
<ellipse cx="1503.5" cy="1678.5" rx="12.5" ry="12.5" transform="rotate(-180 1503.5 1678.5)" fill="#C4C4C4"/>
<ellipse cx="1694.25" cy="1613.25" rx="8.74998" ry="8.75" transform="rotate(-180 1694.25 1613.25)" fill="#C4C4C4"/>
<line x1="1949.02" y1="2460.73" x2="1502" y2="2460.73" stroke="#C4C4C4" stroke-width="2"/>
<line x1="1949.04" y1="2395.09" x2="1691" y2="2395.09" stroke="#C4C4C4" stroke-width="2"/>
<ellipse cx="1502.5" cy="2460.5" rx="12.5" ry="12.5" transform="rotate(-180 1502.5 2460.5)" fill="#C4C4C4"/>
<ellipse cx="1693.25" cy="2395.25" rx="8.74998" ry="8.75" transform="rotate(-180 1693.25 2395.25)" fill="#C4C4C4"/>
</svg>
