<svg width="1950" height="400" viewBox="0 0 1950 400" fill="none" xmlns="http://www.w3.org/2000/svg">
<g filter="url(#filter0_d)">
<path d="M1594.78 142.265L1655.79 304.893L1718.85 142.265" stroke="black" stroke-width="8"/>
<g filter="url(#filter1_d)">
<path d="M1581.67 146.372L1642.69 309L1705.75 146.372" stroke="black" stroke-width="4"/>
</g>
<g filter="url(#filter2_d)">
<ellipse cx="1649.44" cy="314.955" rx="4.70916" ry="4.72279" fill="black"/>
</g>
<path d="M1760.03 217.83C1760.03 277.385 1711.89 325.659 1652.52 325.659C1593.14 325.659 1545 277.385 1545 217.83C1545 158.274 1593.14 110 1652.52 110C1711.89 110 1760.03 158.274 1760.03 217.83Z" stroke="black" stroke-width="2"/>
<path d="M1768.22 217.83C1768.22 281.921 1716.42 333.873 1652.52 333.873C1588.62 333.873 1536.81 281.921 1536.81 217.83C1536.81 153.738 1588.62 101.786 1652.52 101.786C1716.42 101.786 1768.22 153.738 1768.22 217.83Z" stroke="black" stroke-width="2"/>
</g>
<g filter="url(#filter3_d)">
<path d="M1554.5 278L1349.5 308L1083 254L884 308" stroke="black"/>
</g>
<g filter="url(#filter4_d)">
<path d="M1569.5 299.5C1567.1 299.1 1365.83 254.333 1265.5 232L1033 314.5L838 257" stroke="black"/>
</g>
<circle cx="1082" cy="253" r="5" fill="black"/>
<circle cx="1349" cy="308" r="5" fill="black"/>
<circle cx="1266" cy="232" r="5" fill="black"/>
<circle cx="1032" cy="313" r="5" fill="black"/>
<circle cx="838" cy="256" r="5" fill="black"/>
<circle cx="887" cy="307" r="5" fill="black"/>
<defs>
<filter id="filter0_d" x="1531.81" y="100.786" width="241.41" height="242.086" filterUnits="userSpaceOnUse" color-interpolation-filters="sRGB">
<feFlood flood-opacity="0" result="BackgroundImageFix"/>
<feColorMatrix in="SourceAlpha" type="matrix" values="0 0 0 0 0 0 0 0 0 0 0 0 0 0 0 0 0 0 127 0"/>
<feOffset dy="4"/>
<feGaussianBlur stdDeviation="2"/>
<feColorMatrix type="matrix" values="0 0 0 0 0 0 0 0 0 0 0 0 0 0 0 0 0 0 0.25 0"/>
<feBlend mode="normal" in2="BackgroundImageFix" result="effect1_dropShadow"/>
<feBlend mode="normal" in="SourceGraphic" in2="effect1_dropShadow" result="shape"/>
</filter>
<filter id="filter1_d" x="1575.8" y="145.649" width="135.813" height="176.963" filterUnits="userSpaceOnUse" color-interpolation-filters="sRGB">
<feFlood flood-opacity="0" result="BackgroundImageFix"/>
<feColorMatrix in="SourceAlpha" type="matrix" values="0 0 0 0 0 0 0 0 0 0 0 0 0 0 0 0 0 0 127 0"/>
<feOffset dy="4"/>
<feGaussianBlur stdDeviation="2"/>
<feColorMatrix type="matrix" values="0 0 0 0 0 0 0 0 0 0 0 0 0 0 0 0 0 0 0.25 0"/>
<feBlend mode="normal" in2="BackgroundImageFix" result="effect1_dropShadow"/>
<feBlend mode="normal" in="SourceGraphic" in2="effect1_dropShadow" result="shape"/>
</filter>
<filter id="filter2_d" x="1640.74" y="310.232" width="17.4183" height="17.4456" filterUnits="userSpaceOnUse" color-interpolation-filters="sRGB">
<feFlood flood-opacity="0" result="BackgroundImageFix"/>
<feColorMatrix in="SourceAlpha" type="matrix" values="0 0 0 0 0 0 0 0 0 0 0 0 0 0 0 0 0 0 127 0"/>
<feOffset dy="4"/>
<feGaussianBlur stdDeviation="2"/>
<feColorMatrix type="matrix" values="0 0 0 0 0 0 0 0 0 0 0 0 0 0 0 0 0 0 0.25 0"/>
<feBlend mode="normal" in2="BackgroundImageFix" result="effect1_dropShadow"/>
<feBlend mode="normal" in="SourceGraphic" in2="effect1_dropShadow" result="shape"/>
</filter>
<filter id="filter3_d" x="879.869" y="253.486" width="678.703" height="63.0209" filterUnits="userSpaceOnUse" color-interpolation-filters="sRGB">
<feFlood flood-opacity="0" result="BackgroundImageFix"/>
<feColorMatrix in="SourceAlpha" type="matrix" values="0 0 0 0 0 0 0 0 0 0 0 0 0 0 0 0 0 0 127 0"/>
<feOffset dy="4"/>
<feGaussianBlur stdDeviation="2"/>
<feColorMatrix type="matrix" values="0 0 0 0 0 0 0 0 0 0 0 0 0 0 0 0 0 0 0.25 0"/>
<feBlend mode="normal" in2="BackgroundImageFix" result="effect1_dropShadow"/>
<feBlend mode="normal" in="SourceGraphic" in2="effect1_dropShadow" result="shape"/>
</filter>
<filter id="filter4_d" x="833.858" y="231.481" width="739.724" height="91.5448" filterUnits="userSpaceOnUse" color-interpolation-filters="sRGB">
<feFlood flood-opacity="0" result="BackgroundImageFix"/>
<feColorMatrix in="SourceAlpha" type="matrix" values="0 0 0 0 0 0 0 0 0 0 0 0 0 0 0 0 0 0 127 0"/>
<feOffset dy="4"/>
<feGaussianBlur stdDeviation="2"/>
<feColorMatrix type="matrix" values="0 0 0 0 0 0 0 0 0 0 0 0 0 0 0 0 0 0 0.25 0"/>
<feBlend mode="normal" in2="BackgroundImageFix" result="effect1_dropShadow"/>
<feBlend mode="normal" in="SourceGraphic" in2="effect1_dropShadow" result="shape"/>
</filter>
</defs>
</svg>
